<?xml version="1.0" ?><svg data-name="Layer 1" id="Layer_1" viewBox="0 0 512 512" xmlns="http://www.w3.org/2000/svg"><polygon points="139.06 301.5 139.06 280.2 82 325.41 82 381.8 139.06 338.48 139.06 301.5"/><polygon points="139.06 228.43 82 228.43 82 305.24 139.06 260.03 139.06 228.43"/><polygon points="343.79 216.58 343.79 192 286.71 237.23 286.71 293.69 343.79 250.36 343.79 216.58"/><path d="M343.79,324.52v-54.3l-57.08,43.33v55.8l57-44.8Z"/><polygon points="343.79 115.92 286.71 161.15 286.71 217.06 343.79 171.83 343.79 115.92"/><polygon points="343.79 88.63 286.71 88.63 286.71 140.98 343.79 95.75 343.79 88.63"/><path d="M379.34,91h57.49a11.85,11.85,0,1,0,0-23.7H379.34a11.85,11.85,0,1,0,0,23.7Z"/><path d="M379.34,133h38a11.85,11.85,0,1,0,0-23.7h-38a11.85,11.85,0,1,0,0,23.7Z"/><path d="M174.2,219.25h57.49a11.85,11.85,0,1,0,0-23.7H174.2a11.85,11.85,0,1,0,0,23.7Z"/><path d="M174.2,261.31h38a11.85,11.85,0,1,0,0-23.7h-38a11.85,11.85,0,1,0,0,23.7Z"/><path d="M472.32,421H424.55V228.43H367.49V421h-23.7V344.59l-57.08,44.84V421H219.84V313.35H162.76V421h-23.7v-62.7L82,401.65V421H39.68a11.85,11.85,0,0,0,0,23.7H472.32a11.85,11.85,0,1,0,0-23.7Z"/></svg>